<?xml version="1.0" encoding="utf-8"?>
<!-- Generator: Adobe Illustrator 13.0.0, SVG Export Plug-In . SVG Version: 6.00 Build 14948)  -->
<!DOCTYPE svg PUBLIC "-//W3C//DTD SVG 1.1//EN" "http://www.w3.org/Graphics/SVG/1.1/DTD/svg11.dtd">
<svg version="1.1" id="Layer_1" xmlns="http://www.w3.org/2000/svg" xmlns:xlink="http://www.w3.org/1999/xlink" x="0px" y="0px"
	 width="55px" height="55px" viewBox="0 0 55 55" style="enable-background:new 0 0 55 55;" xml:space="preserve">
<g id="reset-history">
	<g>
		<path style="fill:none;stroke:#FFFFFF;stroke-width:3.5;" d="M43.82,6.088H22.876L10.932,18.027v30.887h32.886L43.82,6.088z"/>
		<polyline style="fill:none;stroke:#FFFFFF;stroke-width:3.5;" points="10.932,18.027 22.876,18.027 22.876,6.088 		"/>
		<path style="fill:#FFFFFF;" d="M37.33,39.248c1.195,1.199,1.199,3.141,0,4.338c-0.596,0.6-1.383,0.898-2.168,0.898
			s-1.569-0.301-2.166-0.896L27.5,38.091l-5.496,5.498c-0.599,0.597-1.382,0.896-2.166,0.896c-0.787,0-1.572-0.299-2.17-0.896
			c-1.196-1.197-1.196-3.139,0.003-4.338l5.493-5.49l-5.493-5.492c-1.199-1.201-1.199-3.146-0.003-4.34
			c1.195-1.198,3.14-1.203,4.336,0l5.496,5.496l5.496-5.496c1.195-1.203,3.137-1.198,4.334,0c1.199,1.194,1.195,3.139,0,4.34
			l-5.492,5.492L37.33,39.248z"/>
	</g>
</g>
</svg>
