<?xml version="1.0" encoding="utf-8"?>
<!-- Generator: Adobe Illustrator 12.0.0, SVG Export Plug-In . SVG Version: 6.00 Build 51448)  -->
<!DOCTYPE svg PUBLIC "-//W3C//DTD SVG 1.1//EN" "http://www.w3.org/Graphics/SVG/1.1/DTD/svg11.dtd" [
    <!ENTITY ns_svg "http://www.w3.org/2000/svg">
    <!ENTITY ns_xlink " http://www.w3.org/1999/xlink">
    <!ENTITY stroke_color "#000000">
    <!ENTITY fill_color "#FFFFFF">
]>
<svg  version="1.1" id="Bounce" xmlns="&ns_svg;" xmlns:xlink="&ns_xlink;" width="58" height="56" viewBox="8 6 58 56"
	 overflow="visible" enable-background="new 8 6 58 56" xml:space="preserve">
<path fill="&fill_color;" stroke="&stroke_color;" stroke-width="3.5" d="M44.15,40.292c-0.568,1.641-2.357,2.519-4.009,1.956
	c-1.641-0.563-2.52-2.356-1.956-4.003c0.565-1.644,2.355-2.521,4.002-1.96C43.832,36.85,44.711,38.645,44.15,40.292z"/>
<path fill="&fill_color;" stroke="&stroke_color;" stroke-width="3.5" d="M40.125,51.875c0,2.623-2.127,4.75-4.75,4.75H18.75
	c-2.624,0-4.75-2.127-4.75-4.75l0,0c0-2.623,2.126-4.75,4.75-4.75h16.625C37.998,47.125,40.125,49.252,40.125,51.875L40.125,51.875z
	"/>
<path fill="&fill_color;" stroke="&stroke_color;" stroke-width="3.5" d="M60.5,13.875c0,2.623-2.127,4.75-4.75,4.75H39.125
	c-2.624,0-4.75-2.127-4.75-4.75l0,0c0-2.623,2.126-4.75,4.75-4.75H55.75C58.373,9.125,60.5,11.252,60.5,13.875L60.5,13.875z"/>
<path fill="none" stroke="&stroke_color;" stroke-width="4.2716" d="M49.375,36.375c0-2.971-2.964-5.375-6.625-5.375"/>
<path fill="none" stroke="&stroke_color;" stroke-width="4.2716" d="M53.875,31.25c0-2.971-2.964-5.375-6.625-5.375"/>
</svg>
